<svg id="Layer_1" data-name="Layer 1" xmlns="http://www.w3.org/2000/svg" viewBox="0 0 1585 229"><defs><style>.cls-1{fill:#fff;}.cls-2{fill:#f7941d;}</style></defs><path class="cls-1" d="M175.74,166.06q-4.59,29.13-26.37,44.92t-57,15.8q-43.24,0-67.32-22.24T.94,142.44Q.94,117,11.82,97.82T43.57,68.07Q64.42,57.5,92.94,57.49q33.12,0,53.82,14.26T173,112.69l-37.41,4.91Q127,86.33,92.63,86.32q-25.45,0-39.56,14.57T39,141.83q0,27.3,14,41.71T93.25,198q38.32,0,45.39-31.89Z"/><path class="cls-1" d="M213.46,221.87V2.9h36.8v219Z"/><path class="cls-1" d="M298.72,221.87V62.4h36.8V221.87Z"/><path class="cls-1" d="M625.64,221.87v-96.6q0-19.62-8.28-28.83T591,87.24q-20.55,0-36.49,14.41A39.16,39.16,0,0,0,545,114.53a36.4,36.4,0,0,0-3.37,15.34v92h-36.8v-96.6q0-19.62-8.28-28.83t-26.38-9.2q-20.23,0-36.19,16-13.18,13.19-13.18,31.28v87.4H384V62.4h36.19V88.77Q445,57.5,481.5,57.49q20.85,0,35,8.13A45.83,45.83,0,0,1,536.7,89.69q25.45-32.19,65.63-32.2,29.45,0,44.77,15.64t15.34,45.7v103Z"/><path class="cls-1" d="M833.26,221.87v-23a90.84,90.84,0,0,1-30.67,20.7q-16.56,6.6-39,6.59-31,0-47.84-12.72t-16.87-36q0-26.06,21.93-38.79T790,124.35l42.32-1.23v-5.21q0-32.5-42.94-32.51-20.85,0-32.2,5.06T742.48,106l-32.81-3.68q5.52-23,25.14-33.89t55.82-10.89q38.94,0,57.81,15.34t18.86,46.92V221.87Zm-.92-74.52-41.71,1.23q-28.83.91-41.56,7t-12.72,18.71q0,11.34,9.81,17.63t27.29,6.29a83.31,83.31,0,0,0,25.31-3.84,64.93,64.93,0,0,0,21-10.88q12.57-9.51,12.58-25.46Z"/><path class="cls-1" d="M1021.56,218.8a139.53,139.53,0,0,1-42,6.45q-28.21,0-41.24-13t-13-41.86v-80h-31V62.4h31V19.46h36.8V62.4h54.59V90.31H962.06v81.27q0,12.57,6.29,18.7t19.47,6.14a90.78,90.78,0,0,0,28.22-4.6Z"/><path class="cls-1" d="M1051.92,221.87V62.4h36.8V221.87Z"/><path class="cls-1" d="M1303.7,166.06q-4.6,29.13-26.37,44.92t-57,15.8q-43.23,0-67.31-22.24t-24.08-62.1q0-25.45,10.89-44.62t31.74-29.75q20.85-10.57,49.38-10.58,33.12,0,53.82,14.26t26.22,40.94l-37.41,4.91q-8.6-31.27-42.94-31.28-25.46,0-39.56,14.57t-14.11,40.94q0,27.3,14,41.71T1221.2,198q38.34,0,45.39-31.89Z"/><path class="cls-1" d="M1465,221.87v-23a90.84,90.84,0,0,1-30.67,20.7q-16.56,6.6-38.95,6.59-31,0-47.84-12.72t-16.87-36q0-26.06,21.93-38.79t69.16-14.26l42.32-1.23v-5.21q0-32.5-42.94-32.51-20.85,0-32.2,5.06T1374.23,106l-32.81-3.68q5.52-23,25.15-33.89t55.81-10.89q38.94,0,57.81,15.34t18.86,46.92V221.87Zm-.92-74.52-41.71,1.23q-28.83.91-41.55,7t-12.73,18.71q0,11.34,9.81,17.63t27.3,6.29a83.29,83.29,0,0,0,25.3-3.84,64.93,64.93,0,0,0,21-10.88q12.59-9.51,12.58-25.46Z"/><circle class="cls-2" cx="1565.5" cy="203.5" r="18.5"/><circle class="cls-2" cx="317.5" cy="20.5" r="18.5"/><circle class="cls-2" cx="1070.5" cy="20.5" r="18.5"/></svg>