<svg width="30" height="30" viewBox="0 0 30 30" fill="none" xmlns="http://www.w3.org/2000/svg">
<path fill-rule="evenodd" clip-rule="evenodd" d="M5.3 7H23.7C24.0054 6.99995 24.3078 7.06074 24.5895 7.17882C24.8712 7.2969 25.1265 7.4699 25.3407 7.68773C25.5548 7.90556 25.7233 8.16386 25.8365 8.44754C25.9497 8.73122 26.0053 9.03461 26 9.34V21.61C26 22.22 25.7577 22.805 25.3263 23.2363C24.895 23.6677 24.31 23.91 23.7 23.91H5.3C4.69001 23.91 4.10499 23.6677 3.67365 23.2363C3.24232 22.805 3 22.22 3 21.61V9.3C3 8.69001 3.24232 8.10499 3.67365 7.67366C4.10499 7.24233 4.69001 7 5.3 7ZM24.2416 22.1116C24.3855 21.9678 24.4674 21.7734 24.47 21.57V9.3C24.4674 9.09752 24.3851 8.90423 24.241 8.76198C24.0968 8.61973 23.9025 8.53998 23.7 8.53999H5.3C5.09751 8.53998 4.90315 8.61973 4.75903 8.76198C4.61491 8.90423 4.53263 9.09752 4.53 9.3V21.57C4.53259 21.7734 4.61455 21.9678 4.75839 22.1116C4.90224 22.2554 5.09659 22.3374 5.3 22.34H23.7C23.9034 22.3374 24.0978 22.2554 24.2416 22.1116ZM22.4628 10.1234C22.5555 10.162 22.6396 10.2187 22.7103 10.29C22.8526 10.4357 22.9323 10.6313 22.9323 10.835C22.9323 11.0387 22.8526 11.2343 22.7103 11.38L18.6503 15.44L22.7103 19.44C22.7819 19.5115 22.8388 19.5965 22.8776 19.69C22.9164 19.7835 22.9363 19.8838 22.9363 19.985C22.9363 20.0863 22.9164 20.1865 22.8776 20.28C22.8388 20.3735 22.7819 20.4585 22.7103 20.53C22.6388 20.6017 22.5538 20.6585 22.4603 20.6973C22.3668 20.7361 22.2665 20.7561 22.1653 20.7561C22.064 20.7561 21.9638 20.7361 21.8703 20.6973C21.7767 20.6585 21.6918 20.6017 21.6203 20.53L17.5703 16.47L15.0503 19C14.9796 19.0714 14.8955 19.128 14.8028 19.1667C14.7101 19.2053 14.6107 19.2252 14.5103 19.2252C14.4099 19.2252 14.3104 19.2053 14.2177 19.1667C14.125 19.128 14.0409 19.0714 13.9703 19L11.4403 16.47L7.39027 20.53C7.31875 20.6017 7.23381 20.6585 7.14029 20.6973C7.04677 20.7361 6.94652 20.7561 6.84528 20.7561C6.74403 20.7561 6.64378 20.7361 6.55026 20.6973C6.45674 20.6585 6.3718 20.6017 6.30028 20.53C6.22862 20.4585 6.17176 20.3735 6.13297 20.28C6.09418 20.1865 6.07422 20.0863 6.07422 19.985C6.07422 19.8838 6.09418 19.7835 6.13297 19.69C6.17176 19.5965 6.22862 19.5115 6.30028 19.44L10.3603 15.44L6.30028 11.38C6.22862 11.3085 6.17176 11.2235 6.13297 11.13C6.09418 11.0365 6.07422 10.9363 6.07422 10.835C6.07422 10.7338 6.09418 10.6335 6.13297 10.54C6.17176 10.4465 6.22862 10.3615 6.30028 10.29C6.3718 10.2183 6.45674 10.1615 6.55026 10.1227C6.64378 10.0839 6.74403 10.064 6.84528 10.064C6.94652 10.064 7.04677 10.0839 7.14029 10.1227C7.23381 10.1615 7.31875 10.2183 7.39027 10.29L14.5103 17.42L21.6303 10.29C21.7009 10.2187 21.785 10.162 21.8777 10.1234C21.9704 10.0847 22.0698 10.0648 22.1703 10.0648C22.2707 10.0648 22.3701 10.0847 22.4628 10.1234Z" fill="#F7941D"/>
</svg>
