<svg width="30" height="30" viewBox="0 0 30 30" fill="none" xmlns="http://www.w3.org/2000/svg">
<path fill-rule="evenodd" clip-rule="evenodd" d="M21.9229 7.07317C20.9528 6.09845 19.8001 5.32521 18.531 4.79784C17.2619 4.27046 15.9013 3.99933 14.5273 4C14.3408 4 14.162 4.0742 14.0301 4.20627C13.8983 4.33835 13.8242 4.51748 13.8242 4.70426C13.8242 4.88862 13.8973 5.06544 14.0275 5.1958C14.1576 5.32616 14.3341 5.39939 14.5181 5.39939C16.9223 5.41381 19.2237 6.37754 20.9229 8.08138C22.6221 9.78522 23.5818 12.0916 23.5938 14.5V14.5732C23.5938 14.7584 23.6666 14.9361 23.7965 15.068C23.9263 15.1998 24.1028 15.275 24.2877 15.2774C24.4742 15.2774 24.653 15.2032 24.7848 15.0712C24.9167 14.9391 24.9908 14.76 24.9908 14.5732C25.0056 13.1811 24.7417 11.8002 24.2148 10.512C23.6879 9.22386 22.9086 8.05455 21.9229 7.07317ZM19.7217 17.9482C19.5275 17.7535 19.2969 17.5991 19.0431 17.4937C18.7893 17.3883 18.5173 17.3341 18.2425 17.3341C17.9678 17.3341 17.6957 17.3883 17.4419 17.4937C17.1882 17.5991 16.9576 17.7535 16.7634 17.9482L15.7591 18.9635C14.6169 18.2408 13.5602 17.3909 12.609 16.4299C11.6521 15.475 10.8039 14.4167 10.0799 13.2744L11.0934 12.2592C11.4865 11.8648 11.7072 11.3302 11.7072 10.7729C11.7072 10.2156 11.4865 9.68105 11.0934 9.28664L9.1121 7.31102C8.91935 7.1145 8.689 6.95894 8.43485 6.85365C8.18071 6.74836 7.90797 6.69549 7.63296 6.69822C7.35832 6.69805 7.08633 6.75208 6.83254 6.85722C6.57875 6.96237 6.34812 7.11657 6.15383 7.31102L5.24079 8.22566C4.78907 8.71111 4.45135 9.29154 4.2523 9.92452C4.05326 10.5575 3.99794 11.227 4.09036 11.8842C4.31862 14.5092 6.03514 17.6647 8.65558 20.3263C11.276 22.9878 14.4899 24.6982 17.1012 24.9452H17.6947C18.2575 24.9676 18.8192 24.8782 19.3474 24.6819C19.8755 24.4857 20.3596 24.1866 20.7717 23.8019L21.6847 22.8872C22.0798 22.4917 22.3029 21.9559 22.3056 21.3964C22.3075 21.1215 22.2534 20.8492 22.1466 20.596C22.0399 20.3428 21.8827 20.1141 21.6847 19.9238L19.7217 17.9482ZM20.7077 21.9086L19.7947 22.8232C19.4434 23.1165 19.0335 23.3311 18.5926 23.4526C18.1516 23.5741 17.6898 23.5996 17.2382 23.5275C14.9647 23.3263 12.0703 21.6982 9.68731 19.3293C7.30426 16.9604 5.68818 14.061 5.46905 11.7836C5.39704 11.3312 5.42252 10.8686 5.54378 10.4268C5.66504 9.98512 5.87929 9.57451 6.1721 9.22261L7.14905 8.30797C7.28457 8.179 7.4643 8.10698 7.65122 8.10675C7.83517 8.10839 8.01154 8.18037 8.14426 8.30797L10.1256 10.311C10.2528 10.4439 10.3238 10.6208 10.3238 10.8049C10.3238 10.989 10.2528 11.166 10.1256 11.2988L8.71948 12.6982C8.61238 12.8075 8.54375 12.9487 8.52398 13.1006C8.5042 13.2524 8.53438 13.4066 8.60992 13.5397C9.44662 14.968 10.4656 16.2808 11.6412 17.4452C12.803 18.617 14.1102 19.6345 15.5308 20.4726C15.6655 20.5476 15.8206 20.5773 15.9734 20.5576C16.1262 20.5378 16.2686 20.4696 16.3799 20.3629L17.7769 18.9635C17.8414 18.8982 17.9182 18.8464 18.0028 18.811C18.0874 18.7757 18.1782 18.7575 18.2699 18.7575C18.3616 18.7575 18.4524 18.7757 18.537 18.811C18.6217 18.8464 18.6984 18.8982 18.763 18.9635L20.7351 20.9391C20.8634 21.0677 20.9354 21.2421 20.9354 21.4238C20.9354 21.6056 20.8634 21.78 20.7351 21.9086H20.7077ZM18.8749 12.4622C18.663 11.9435 18.3486 11.473 17.9504 11.0793H17.9139C17.5276 10.6854 17.0673 10.372 16.5596 10.1569C16.0519 9.94189 15.5068 9.82952 14.9556 9.82627C14.7708 9.82386 14.5943 9.7486 14.4644 9.61679C14.3345 9.48497 14.2617 9.30721 14.2617 9.122C14.2617 8.93764 14.3348 8.76083 14.465 8.63047C14.5951 8.50011 14.7716 8.42688 14.9556 8.42688H15.1017C16.5781 8.45335 17.9839 9.06512 19.0108 10.1281C20.0377 11.1911 20.602 12.6185 20.58 14.0976C20.58 14.282 20.5069 14.4588 20.3767 14.5891C20.2466 14.7195 20.0701 14.7927 19.8861 14.7927C19.7012 14.7928 19.5237 14.7198 19.3921 14.5897C19.2606 14.4596 19.1854 14.2828 19.183 14.0976C19.1915 13.5372 19.0867 12.9809 18.8749 12.4622Z" fill="#F7941D"/>
</svg>
