<svg xmlns="http://www.w3.org/2000/svg" width="26.625" height="39.921" viewBox="0 0 26.625 39.921">
  <path id="Icon_ionic-ios-arrow-round-up" data-name="Icon ionic-ios-arrow-round-up" d="M37.362,22.344a1.812,1.812,0,0,1-2.551.014l-8.444-8.417V46.014a1.8,1.8,0,0,1-3.605,0V13.942l-8.444,8.431a1.825,1.825,0,0,1-2.551-.014,1.8,1.8,0,0,1,.014-2.537L23.288,8.4h0a2.024,2.024,0,0,1,.569-.374,1.72,1.72,0,0,1,.693-.139,1.807,1.807,0,0,1,1.262.513L37.321,19.821A1.766,1.766,0,0,1,37.362,22.344Z" transform="translate(37.872 47.803) rotate(180)" fill="#fff"/>
</svg>
